<svg width="30" height="29" viewBox="0 0 30 29" fill="none" xmlns="http://www.w3.org/2000/svg">
<path d="M28.75 22.9583C28.75 23.5993 28.4866 24.214 28.0178 24.6672C27.5489 25.1204 26.913 25.375 26.25 25.375H3.75C3.08696 25.375 2.45107 25.1204 1.98223 24.6672C1.51339 24.214 1.25 23.5993 1.25 22.9583V9.66667C1.25 9.02573 1.51339 8.41104 1.98223 7.95783C2.45107 7.50461 3.08696 7.25 3.75 7.25H8.75L11.25 3.625H18.75L21.25 7.25H26.25C26.913 7.25 27.5489 7.50461 28.0178 7.95783C28.4866 8.41104 28.75 9.02573 28.75 9.66667V22.9583Z" stroke="#285B23" stroke-width="2" stroke-linecap="round" stroke-linejoin="round"/>
<path d="M15 20.5417C17.7614 20.5417 20 18.3777 20 15.7083C20 13.039 17.7614 10.875 15 10.875C12.2386 10.875 10 13.039 10 15.7083C10 18.3777 12.2386 20.5417 15 20.5417Z" stroke="#285B23" stroke-width="2" stroke-linecap="round" stroke-linejoin="round"/>
</svg>
