<svg width="22" height="22" viewBox="0 0 22 22" fill="none" xmlns="http://www.w3.org/2000/svg">
<path d="M20.947 12.2234C20.947 8.7932 20.7884 6.67758 20.6527 5.49945C20.6459 5.44027 20.6363 5.38151 20.6239 5.32341C20.1151 2.02289 17.9031 1.07029 17.4886 0.919244C17.4462 0.903319 17.4032 0.889588 17.3597 0.878098C15.7906 0.469244 3.94316 0.86039 1.44259 4.72654C1.19955 5.03145 1.04867 5.40973 1.01028 5.81039C1.00367 5.87426 0.997263 5.93815 0.991042 6.00206C0.870823 7.24477 0.750122 9.23487 0.750122 12.2234" stroke="#285B23" stroke-width="1.5" stroke-linecap="round"/>
<path d="M1.00835 5.95159C1.10742 4.99691 1.77632 4.30003 2.65969 4.21201C4.02106 4.07659 6.52307 3.92139 10.8486 3.92139C15.5006 3.92139 18.043 4.10055 19.3265 4.24222C20.0324 4.32035 20.5667 4.87868 20.6547 5.64118C20.7893 6.8068 20.947 8.88857 20.947 12.2547C20.947 15.0907 20.835 17.0151 20.7196 18.2479C20.6119 19.3953 19.8126 20.2282 18.7518 20.3245C17.3366 20.4532 14.888 20.5881 10.8486 20.5881C6.8092 20.5881 4.36056 20.4526 2.94533 20.3245C1.88403 20.2282 1.08529 19.3953 0.977578 18.2479C0.862167 17.0151 0.750122 15.0907 0.750122 12.2547C0.750122 9.16878 0.882364 7.16201 1.00835 5.95159Z" stroke="#285B23" stroke-width="1.5" stroke-linecap="round"/>
<path d="M7.96338 8.66341C7.96338 9.21595 8.16603 9.74585 8.52676 10.1366C8.88749 10.5273 9.37675 10.7467 9.88689 10.7467C10.397 10.7467 10.8863 10.5273 11.247 10.1366C11.6078 9.74585 11.8104 9.21595 11.8104 8.66341C11.8104 8.11088 11.6078 7.58097 11.247 7.19027C10.8863 6.79957 10.397 6.58008 9.88689 6.58008C9.37675 6.58008 8.88749 6.79957 8.52676 7.19027C8.16603 7.58097 7.96338 8.11088 7.96338 8.66341Z" stroke="#285B23" stroke-width="1.5" stroke-linecap="round"/>
<path d="M16.1384 16.9967C15.6282 16.9967 15.139 16.7773 14.7782 16.3866C14.4175 15.9958 14.2148 15.4659 14.2148 14.9134C14.2148 14.3609 14.4175 13.831 14.7782 13.4403C15.139 13.0496 15.6282 12.8301 16.1384 12.8301C16.6485 12.8301 17.1378 13.0496 17.4985 13.4403C17.8592 13.831 18.0619 14.3609 18.0619 14.9134C18.0619 15.4659 17.8592 15.9958 17.4985 16.3866C17.1378 16.7773 16.6485 16.9967 16.1384 16.9967Z" stroke="#285B23" stroke-width="1.5" stroke-linecap="round"/>
<path d="M0.928047 17.7228C1.37559 17.9589 1.87192 18.0656 2.36878 18.0324C2.86563 17.9993 3.34613 17.8275 3.76354 17.5337C4.18095 17.2399 4.52109 16.8342 4.75088 16.3559C4.98068 15.8776 5.09231 15.3431 5.07493 14.8042C5.05755 14.2654 4.91175 13.7406 4.65171 13.2809C4.39166 12.8211 4.02621 12.4421 3.59089 12.1805C3.15556 11.919 2.66518 11.7839 2.16739 11.7884C1.66961 11.7929 1.18136 11.9368 0.750122 12.2062" stroke="#285B23" stroke-width="1.5" stroke-linecap="round"/>
</svg>
