<svg width="20" height="23" viewBox="0 0 20 23" fill="none" xmlns="http://www.w3.org/2000/svg">
<path d="M6.08197 1.18734C6.08197 0.945794 6.25881 0.75 6.47698 0.75C6.89191 0.75 7.30278 0.840484 7.68613 1.01629C8.06947 1.19209 8.41779 1.44976 8.71119 1.7746C9.00459 2.09944 9.23733 2.48508 9.39611 2.90951C9.5549 3.33393 9.63663 3.78882 9.63663 4.24822C9.63663 4.36421 9.59501 4.47545 9.52093 4.55746C9.44685 4.63948 9.34638 4.68556 9.24162 4.68556C8.40363 4.68556 7.59996 4.31699 7.00741 3.66095C6.41486 3.00491 6.08197 2.11512 6.08197 1.18734Z" stroke="#285B23" stroke-width="1.5" stroke-linecap="round"/>
<path d="M9.63664 21.1106C8.66842 21.6352 7.60427 21.9065 6.52632 21.9036C3.58128 21.9036 0.75 17.968 0.75 13.1066C0.75 8.24476 3.58128 6.16138 6.52632 6.16138C7.46208 6.16138 8.5658 6.42408 9.63664 6.92143C10.7075 6.42408 11.8112 6.16138 12.747 6.16138C15.692 6.16138 18.5233 8.24476 18.5233 13.1066C18.5233 17.968 15.692 21.9036 12.747 21.9036C11.6139 21.9036 10.5671 21.6138 9.63664 21.1106Z" stroke="#285B23" stroke-width="1.5" stroke-linecap="round" stroke-linejoin="round"/>
<path d="M9.63666 6.89931V5.83277C9.63666 3.29729 10.9919 1.24194 13.1913 1.24194" stroke="#285B23" stroke-width="1.5" stroke-linecap="round" stroke-linejoin="round"/>
<path d="M16.3016 12.5566C16.0439 9.8116 14.4247 8.62109 12.7469 8.62109" stroke="#285B23" stroke-width="1.5" stroke-linecap="round" stroke-linejoin="round"/>
</svg>
