<svg width="21" height="22" viewBox="0 0 21 22" fill="none" xmlns="http://www.w3.org/2000/svg">
<path d="M12.0538 6.5459C3.58092 12.3418 0.905273 21.0357 0.905273 21.0357" stroke="#285B23" stroke-width="1.5" stroke-linecap="round" stroke-linejoin="round"/>
<path d="M14.5145 4.30295C15.2623 2.90131 16.8851 2.21594 18.3116 2.69942L19.0724 2.95782C19.1362 2.97947 19.1946 3.01635 19.2434 3.06575C19.2923 3.11515 19.3302 3.1758 19.3545 3.24322C19.3788 3.31064 19.3887 3.3831 19.3837 3.45525C19.3786 3.52741 19.3587 3.59741 19.3253 3.66009L18.9266 4.40776C18.1792 5.8094 16.556 6.49477 15.1299 6.01129L13.8375 5.57274L14.5145 4.30295Z" stroke="#285B23" stroke-width="1.5" stroke-linecap="round" stroke-linejoin="round"/>
<path d="M12.7173 8.78767C14.044 7.57053 16.0641 7.91104 17.0233 9.48801L17.1014 9.61745C17.1937 9.77201 17.1852 9.95265 17.0559 10.0715C15.7292 11.2886 13.7091 10.9481 12.7503 9.37113C12.724 9.32809 12.6978 9.28494 12.6718 9.24168C12.5795 9.08713 12.588 8.90649 12.7173 8.78767Z" stroke="#285B23" stroke-width="1.5" stroke-linecap="round" stroke-linejoin="round"/>
<path d="M12.4783 0.754402C10.592 0.654906 9.28229 2.35504 9.66892 4.35704L9.70148 4.52126C9.74027 4.7159 9.87539 4.86273 10.0596 4.87239C11.9459 4.9714 13.2556 3.27176 12.869 1.26927L12.8364 1.10505C12.7976 0.910408 12.6625 0.764062 12.4783 0.754402Z" stroke="#285B23" stroke-width="1.5" stroke-linecap="round" stroke-linejoin="round"/>
<path d="M8.70472 12.0892C10.1638 10.701 12.3191 10.9903 13.2992 12.6784L13.3795 12.8175C13.4732 12.9827 13.4589 13.1812 13.3166 13.3164C11.8571 14.7041 9.70185 14.4148 8.72167 12.7272C8.69472 12.6809 8.66797 12.6346 8.6414 12.5881C8.54775 12.4229 8.56202 12.2244 8.70472 12.0892Z" stroke="#285B23" stroke-width="1.5" stroke-linecap="round" stroke-linejoin="round"/>
<path d="M7.03691 3.53207C8.39747 5.14961 7.99568 7.47714 6.20791 8.49626C6.15528 8.5262 6.10578 8.55422 6.06074 8.57885C5.88594 8.6769 5.68214 8.65613 5.5497 8.49819C4.18869 6.88113 4.59093 4.55311 6.37825 3.53448L6.52542 3.45141C6.70022 3.35384 6.90402 3.37413 7.03691 3.53207Z" stroke="#285B23" stroke-width="1.5" stroke-linecap="round" stroke-linejoin="round"/>
<path d="M2.27966 7.41669C4.07814 8.50149 4.38584 10.8918 2.96329 12.5031L2.846 12.6349C2.70598 12.7909 2.50263 12.8426 2.32738 12.7364C0.528898 11.6511 0.221199 9.26124 1.6442 7.6495C1.68611 7.60216 1.72536 7.55773 1.76148 7.51812C1.90106 7.36212 2.10441 7.31044 2.27966 7.41669Z" stroke="#285B23" stroke-width="1.5" stroke-linecap="round" stroke-linejoin="round"/>
<path d="M5.5497 16.1353C6.94059 14.4912 9.15869 14.7197 10.2771 16.5913L10.3685 16.7449C10.4764 16.9284 10.4756 17.1545 10.3395 17.3148C8.9491 18.9589 6.73099 18.7309 5.61257 16.8594C5.58192 16.808 5.55145 16.7564 5.52116 16.7048C5.41324 16.5217 5.41413 16.2957 5.5497 16.1353Z" stroke="#285B23" stroke-width="1.5" stroke-linecap="round" stroke-linejoin="round"/>
</svg>
