<svg width="27" height="24" viewBox="0 0 27 24" fill="none" xmlns="http://www.w3.org/2000/svg">
<path d="M10.125 22V12H16.875V22M3.375 9L13.5 2L23.625 9V20C23.625 20.5304 23.3879 21.0391 22.966 21.4142C22.544 21.7893 21.9717 22 21.375 22H5.625C5.02826 22 4.45597 21.7893 4.03401 21.4142C3.61205 21.0391 3.375 20.5304 3.375 20V9Z" stroke="#285B23" stroke-width="2" stroke-linecap="round" stroke-linejoin="round"/>
<path d="M10.3982 22V12H16.8419V22M3.95459 9L13.6201 2L23.2856 9V20C23.2856 20.5304 23.0593 21.0391 22.6565 21.4142C22.2536 21.7893 21.7073 22 21.1377 22H6.10247C5.53282 22 4.9865 21.7893 4.58369 21.4142C4.18088 21.0391 3.95459 20.5304 3.95459 20V9Z" stroke="#285B23" stroke-width="2" stroke-linecap="round" stroke-linejoin="round"/>
<rect x="3.95459" y="8" width="5.72769" height="14" fill="#285B23"/>
<rect x="3.95459" y="8" width="5.72769" height="14" fill="#285B23"/>
<rect x="3.95459" y="8" width="5.72769" height="14" fill="#285B23"/>
<rect x="3.95459" y="8" width="5.72769" height="14" fill="#285B23"/>
<rect x="17.3193" y="8" width="5.72769" height="14" fill="#285B23"/>
<rect x="17.3193" y="8" width="5.72769" height="14" fill="#285B23"/>
<rect x="17.3193" y="8" width="5.72769" height="14" fill="#285B23"/>
<rect x="17.3193" y="8" width="5.72769" height="14" fill="#285B23"/>
<rect width="5.92294" height="13.5505" transform="matrix(0.518691 -0.854962 0.832406 0.554166 9.68237 7.06396)" fill="#285B23"/>
<rect width="5.92294" height="13.5505" transform="matrix(0.518691 -0.854962 0.832406 0.554166 9.68237 7.06396)" fill="#285B23"/>
<rect width="5.92294" height="13.5505" transform="matrix(0.518691 -0.854962 0.832406 0.554166 9.68237 7.06396)" fill="#285B23"/>
<rect width="5.92294" height="13.5505" transform="matrix(0.518691 -0.854962 0.832406 0.554166 9.68237 7.06396)" fill="#285B23"/>
<rect width="5.94024" height="13.5092" transform="matrix(-0.45579 -0.890087 0.871791 -0.489877 5.70752 14.9053)" fill="#285B23"/>
<rect width="5.94024" height="13.5092" transform="matrix(-0.45579 -0.890087 0.871791 -0.489877 5.70752 14.9053)" fill="#285B23"/>
<rect width="5.94024" height="13.5092" transform="matrix(-0.45579 -0.890087 0.871791 -0.489877 5.70752 14.9053)" fill="#285B23"/>
<rect width="5.94024" height="13.5092" transform="matrix(-0.45579 -0.890087 0.871791 -0.489877 5.70752 14.9053)" fill="#285B23"/>
<rect x="6.81836" y="11" width="3" height="13.3646" transform="rotate(-90 6.81836 11)" fill="#285B23"/>
<rect x="6.81836" y="11" width="3" height="13.3646" transform="rotate(-90 6.81836 11)" fill="#285B23"/>
<rect x="6.81836" y="11" width="3" height="13.3646" transform="rotate(-90 6.81836 11)" fill="#285B23"/>
<rect x="6.81836" y="11" width="3" height="13.3646" transform="rotate(-90 6.81836 11)" fill="#285B23"/>
</svg>
