<svg width="23" height="24" viewBox="0 0 23 24" fill="none" xmlns="http://www.w3.org/2000/svg">
<path fill-rule="evenodd" clip-rule="evenodd" d="M21.1183 13.6476C19.8041 15.7431 18.5112 16.182 16.9157 16.7227C15.9783 17.0406 14.9357 17.3937 13.7226 18.1406C12.7374 18.7467 11.8508 19.4787 11.0023 20.1794C8.78924 22.0065 6.83673 23.6191 4.06817 22.221C0.23728 20.2861 -0.565054 14.5573 3.1917 7.51846C6.94794 0.480687 12.8299 -0.616008 17.2691 2.15653C21.7083 4.92907 23.277 9.60295 21.1183 13.6476Z" stroke="#285B23" stroke-width="1.5" stroke-linecap="round" stroke-linejoin="round"/>
<path fill-rule="evenodd" clip-rule="evenodd" d="M10.1868 17.4124C10.8708 16.8541 11.6676 16.2156 12.5659 15.6678C13.8237 14.9005 15.0165 14.5007 15.8615 14.218C16.1083 14.1355 16.3252 14.0623 16.5054 13.993C17.2519 13.707 17.8085 13.3913 18.4569 12.387C19.1171 11.1253 19.1861 9.83285 18.7768 8.62286C18.3503 7.36116 17.3535 6.05657 15.6848 5.02312C14.1182 4.05293 12.3485 3.78398 10.6565 4.32682C8.96907 4.86857 7.18159 6.27767 5.71048 9.01116C4.17183 11.8711 3.67824 14.2658 3.82042 15.984C3.95753 17.6324 4.6578 18.6504 5.68915 19.1674C6.24622 19.4463 6.65805 19.4815 7.00183 19.4303C7.37761 19.3748 7.80213 19.1955 8.3465 18.8374C8.84923 18.5069 9.35348 18.0949 9.96996 17.59L10.1868 17.4124Z" stroke="#285B23" stroke-width="1.5" stroke-linecap="round" stroke-linejoin="round"/>
<path d="M13.9532 11.7502C14.3573 11.7502 14.7448 11.5763 15.0304 11.2669C15.3161 10.9575 15.4766 10.5378 15.4766 10.1002C15.4766 9.66258 15.3161 9.2429 15.0304 8.93347C14.7448 8.62403 14.3573 8.4502 13.9532 8.4502C13.5492 8.4502 13.1617 8.62403 12.876 8.93347C12.5903 9.2429 12.4298 9.66258 12.4298 10.1002C12.4298 10.5378 12.5903 10.9575 12.876 11.2669C13.1617 11.5763 13.5492 11.7502 13.9532 11.7502Z" stroke="#285B23" stroke-width="1.5" stroke-linecap="round" stroke-linejoin="round"/>
</svg>
