<svg width="29" height="29" viewBox="0 0 29 29" fill="none" xmlns="http://www.w3.org/2000/svg">
<path d="M14.5 14.5002C13.1708 14.5002 12.033 14.0269 11.0865 13.0804C10.1399 12.1338 9.66668 10.996 9.66668 9.66683C9.66668 8.33766 10.1399 7.19982 11.0865 6.25329C12.033 5.30676 13.1708 4.8335 14.5 4.8335C15.8292 4.8335 16.967 5.30676 17.9136 6.25329C18.8601 7.19982 19.3333 8.33766 19.3333 9.66683C19.3333 10.996 18.8601 12.1338 17.9136 13.0804C16.967 14.0269 15.8292 14.5002 14.5 14.5002ZM4.83334 24.1668V20.7835C4.83334 20.0988 5.00956 19.4694 5.36199 18.8955C5.71442 18.3215 6.18265 17.8835 6.76668 17.5814C8.01529 16.9571 9.28404 16.4889 10.5729 16.1767C11.8618 15.8646 13.1708 15.7085 14.5 15.7085C15.8292 15.7085 17.1382 15.8646 18.4271 16.1767C19.716 16.4889 20.9847 16.9571 22.2333 17.5814C22.8174 17.8835 23.2856 18.3215 23.638 18.8955C23.9905 19.4694 24.1667 20.0988 24.1667 20.7835V24.1668H4.83334ZM7.25001 21.7502H21.75V20.7835C21.75 20.562 21.6946 20.3606 21.5839 20.1793C21.4731 19.9981 21.3271 19.8571 21.1458 19.7564C20.0583 19.2127 18.9608 18.8049 17.8531 18.533C16.7455 18.2611 15.6278 18.1252 14.5 18.1252C13.3722 18.1252 12.2545 18.2611 11.1469 18.533C10.0392 18.8049 8.94168 19.2127 7.85418 19.7564C7.67293 19.8571 7.52692 19.9981 7.41616 20.1793C7.30539 20.3606 7.25001 20.562 7.25001 20.7835V21.7502ZM14.5 12.0835C15.1646 12.0835 15.7335 11.8469 16.2068 11.3736C16.68 10.9003 16.9167 10.3314 16.9167 9.66683C16.9167 9.00225 16.68 8.43332 16.2068 7.96006C15.7335 7.48679 15.1646 7.25016 14.5 7.25016C13.8354 7.25016 13.2665 7.48679 12.7932 7.96006C12.32 8.43332 12.0833 9.00225 12.0833 9.66683C12.0833 10.3314 12.32 10.9003 12.7932 11.3736C13.2665 11.8469 13.8354 12.0835 14.5 12.0835Z" fill="#285B23"/>
</svg>
