<svg width="25" height="26" viewBox="0 0 25 26" fill="none" xmlns="http://www.w3.org/2000/svg">
<path d="M4.16638 4.8335H10.2035L12.14 6.84717L12.2875 7.00049H20.8334C21.2661 7.00049 21.6281 7.15362 21.9447 7.48291C22.2618 7.81272 22.4163 8.19829 22.4164 8.6665V19.5005C22.4163 19.9687 22.2618 20.3543 21.9447 20.6841C21.6281 21.0134 21.2661 21.1665 20.8334 21.1665H4.16638C3.73388 21.1664 3.37252 21.0131 3.05603 20.6841C2.73889 20.3543 2.58345 19.9687 2.58337 19.5005V6.50049C2.58337 6.03214 2.73887 5.64678 3.05603 5.31689C3.33321 5.02863 3.64451 4.87416 4.00818 4.84033L4.16638 4.8335ZM3.66638 20.0005H21.3334V8.1665H11.8539L9.91736 6.15381L9.7699 6.00049H3.66638V20.0005Z" fill="#285B23" stroke="#285B23"/>
</svg>
