<svg width="23" height="24" viewBox="0 0 23 24" fill="none" xmlns="http://www.w3.org/2000/svg">
<g clip-path="url(#clip0_53_392)">
<path d="M19.8438 10.5C19.9772 12.8945 18.12 15.133 15.6959 15.5" stroke="#285B23" stroke-width="1.5" stroke-linecap="round" stroke-linejoin="round"/>
<path d="M12.0027 19C12.2133 20.586 13.2575 21.8835 14.5418 22.332" stroke="#285B23" stroke-width="1.5" stroke-linecap="round" stroke-linejoin="round"/>
<path d="M20.4278 17C19.5377 18.9175 17.5227 19.57 15.9268 18.457" stroke="#285B23" stroke-width="1.5" stroke-linecap="round" stroke-linejoin="round"/>
<path d="M11.0795 9.5V9.625" stroke="#285B23" stroke-width="1.5" stroke-linecap="round" stroke-linejoin="round"/>
<path d="M5.53974 6.5H3.4822C2.37194 6.5 1.38495 5.7025 1.38495 4.5C1.38495 3.2975 2.37471 2.483 3.47804 2.6215C5.59883 2.8875 7.3263 3.5 8.77125 3.5C10.6178 3.5 11.7719 2.5 12.0028 1" stroke="#285B23" stroke-width="1.5" stroke-linecap="round" stroke-linejoin="round"/>
<path d="M13.3877 6.5C15.2343 8.709 15.2343 12.291 13.3877 14.5" stroke="#285B23" stroke-width="1.5" stroke-linecap="round" stroke-linejoin="round"/>
<path d="M12.9261 6.5H5.4516V8.5C5.4516 11.8135 7.93155 14.5 10.9913 14.5H13.8489C14.4611 14.5 15.0482 14.7634 15.4811 15.2322C15.9139 15.7011 16.1571 16.337 16.1571 17C16.1571 17.663 15.9139 18.2989 15.4811 18.7678C15.0482 19.2366 14.4611 19.5 13.8489 19.5H13.6767C13.1871 19.5 12.7084 19.3431 12.301 19.049L10.7979 17.9635C10.3793 17.6612 9.88744 17.5 9.38434 17.5H9.13506C8.83315 17.5 8.5342 17.5644 8.25527 17.6895C7.97635 17.8147 7.72291 17.9981 7.50943 18.2293C7.29595 18.4605 7.1266 18.735 7.01107 19.0371C6.89553 19.3392 6.83607 19.663 6.83607 19.99C6.83607 21.2155 7.66149 22.247 8.79021 22.34C10.3241 22.4626 11.8622 22.5153 13.4002 22.498C17.5444 22.4655 20.7736 18.988 20.7736 14.5C20.7736 14.331 20.7736 14.165 20.7726 14.0025C20.7537 9.732 17.7655 6.538 13.8226 6.504C13.5238 6.50137 13.2249 6.50004 12.9261 6.5Z" stroke="#285B23" stroke-width="1.5" stroke-linecap="round" stroke-linejoin="round"/>
</g>
<defs>
<clipPath id="clip0_53_392">
<rect width="22.1589" height="24" fill="white"/>
</clipPath>
</defs>
</svg>
