<svg width="16" height="16" viewBox="0 0 16 16" fill="none" xmlns="http://www.w3.org/2000/svg">
<path d="M7.43469 0.846191C7.58437 0.385532 8.23619 0.38554 8.38586 0.846191L9.5675 4.48291C9.76832 5.10094 10.3444 5.51904 10.9943 5.51904H14.8185C15.3028 5.51904 15.5043 6.13962 15.1124 6.42432L12.0187 8.67236C11.493 9.05434 11.273 9.73112 11.4738 10.3491L12.6554 13.9858C12.8051 14.4465 12.2777 14.8301 11.8859 14.5454L8.79211 12.2974C8.26638 11.9154 7.55417 11.9154 7.02844 12.2974L3.93469 14.5454C3.54283 14.8301 3.01549 14.4465 3.16516 13.9858L4.3468 10.3491C4.5476 9.73112 4.32755 9.05434 3.80188 8.67236L0.70813 6.42432C0.316272 6.13961 0.517715 5.51904 1.00208 5.51904H4.82629C5.47613 5.51904 6.05224 5.10095 6.25305 4.48291L7.43469 0.846191Z" stroke="#285B23"/>
</svg>
