<svg width="16" height="16" viewBox="0 0 16 16" fill="none" xmlns="http://www.w3.org/2000/svg">
<path d="M7.43475 0.846191C7.58443 0.385533 8.23625 0.385539 8.38593 0.846191L9.56757 4.48291C9.76838 5.10094 10.3445 5.51904 10.9943 5.51904H14.8185C15.3029 5.51904 15.5043 6.13962 15.1125 6.42432L12.0187 8.67236C11.4931 9.05434 11.273 9.73112 11.4738 10.3491L12.6555 13.9858C12.8051 14.4465 12.2778 14.8301 11.8859 14.5454L8.79218 12.2974C8.26644 11.9154 7.55423 11.9154 7.0285 12.2974L3.93475 14.5454C3.54289 14.8301 3.01555 14.4465 3.16522 13.9858L4.34686 10.3491C4.54766 9.73112 4.32761 9.05434 3.80194 8.67236L0.708191 6.42432C0.316333 6.13961 0.517776 5.51904 1.00214 5.51904H4.82635C5.47619 5.51904 6.0523 5.10094 6.25311 4.48291L7.43475 0.846191Z" fill="#FFCF20" stroke="#285B23"/>
</svg>
