<svg width="22" height="23" viewBox="0 0 22 23" fill="none" xmlns="http://www.w3.org/2000/svg">
<g clip-path="url(#clip0_53_384)">
<path d="M6.03003 16.469C7.26789 17.8092 7.91735 19.0924 8.24384 20.1801" stroke="#285B23" stroke-width="1.5" stroke-linecap="round" stroke-linejoin="round"/>
<path d="M10.4541 12.1566C8.17706 9.69078 6.0796 9.38076 4.95544 9.43969" stroke="#285B23" stroke-width="1.5" stroke-linecap="round" stroke-linejoin="round"/>
<path d="M8.60574 6.13567C7.40682 5.9579 6.38795 6.82854 5.76283 7.95027C2.60314 13.6207 1.30335 17.7047 0.973753 18.8446C0.913188 19.0588 0.883201 19.2818 0.884828 19.5059C0.88477 19.8388 0.945274 20.1686 1.06288 20.4762C1.18049 20.7839 1.3529 21.0634 1.57027 21.2989C1.78764 21.5343 2.04571 21.7211 2.32973 21.8486C2.61376 21.976 2.91818 22.0416 3.22561 22.0416H3.30657C3.46142 22.0416 3.61582 22.0263 3.76668 21.9908C5.84423 21.4987 9.03709 20.0143 13.9023 16.766C14.9317 16.0784 15.7352 14.9777 15.571 13.6797C15.41 12.4099 14.8251 10.6609 13.1086 8.80271C11.392 6.94354 9.77813 6.3096 8.60574 6.13567Z" stroke="#285B23" stroke-width="1.5" stroke-linecap="round" stroke-linejoin="round"/>
<path d="M11.3359 1.45671C10.6426 1.50128 10.1737 2.12419 10.1754 2.87648C10.1785 4.06098 10.2626 5.4568 10.3603 6.68778C11.2031 7.09411 12.1393 7.75296 13.1081 8.80234C14.077 9.85171 14.6858 10.8661 15.0605 11.7789C16.1975 11.8848 17.4862 11.9759 18.5799 11.9792C19.2744 11.9811 19.8496 11.4732 19.8912 10.7224C19.915 10.2829 19.9148 9.84222 19.8907 9.40273C19.8496 8.65188 19.2744 8.14396 18.5799 8.14588C17.6853 8.14876 16.6602 8.21009 15.6949 8.29011C16.6625 7.43144 17.9247 6.27234 18.9245 5.22009C19.547 4.56459 19.6377 3.56696 19.0426 2.88175C18.8915 2.70789 18.7355 2.53898 18.575 2.37528C17.9423 1.7308 17.0213 1.82903 16.416 2.50321C15.4445 3.58613 14.3743 4.95319 13.5815 6.00113C13.6554 4.95559 13.712 3.84488 13.7142 2.87696C13.7165 2.12467 13.2475 1.50176 12.5543 1.45623C12.1485 1.43045 11.7416 1.43061 11.3359 1.45671Z" stroke="#285B23" stroke-width="1.5" stroke-linecap="round" stroke-linejoin="round"/>
</g>
<defs>
<clipPath id="clip0_53_384">
<rect width="21.2356" height="23" fill="white"/>
</clipPath>
</defs>
</svg>
